# File created by Blade
# Date/Time:  Mon Sep 22 17:23:16 2014
# Frame Rate: 120.000 fps
#------------------------------------------------------
:FULLY-SPECIFIED
:DEGREES
2300
root 1.978078 37.655233 -0.270090 -21.200201 -15.326193 -12.103135
RightUpLeg -49.943574 -33.310814 -21.394471
RightLeg 119.488355 -0.000000 -0.000000
RightFoot 6.354413 -15.237598 14.041221
RightToeBase -2.678278 -0.000000 0.000000
LeftUpLeg 24.624434 2.093719 4.119486
LeftLeg 13.066843 -0.000000 -0.000000
LeftFoot -20.039239 22.320880 -15.332529
LeftToeBase 2.742844 -0.000000 -0.000000
Spine 36.299681 10.398871 -8.053373
RightShoulder 13.823582 -18.086781 -12.428684
RightArm 48.973752 -36.446163 40.953225
RightForeArm -179.619704 -0.000000 95.938632
RightHand 99.855470 -0.000000 -169.887992
RightHandThumb1 -24.326973 -0.000000 -32.862282
LeftShoulder -11.557398 23.190737 15.614982
LeftArm 76.940791 -22.520131 -57.896335
LeftForeArm 62.524923 0.000000 98.856180
LeftHand -25.137055 -0.000000 -24.685681
LeftHandThumb1 -26.253704 0.000000 33.147579
Head -4.836833 7.094218 16.378482
2301
root 1.972540 37.646223 -0.247044 -21.191751 -15.228369 -11.966497
RightUpLeg -50.158757 -33.558793 -21.446689
RightLeg 121.847630 -0.000000 -0.000000
RightFoot 7.607832 -14.748472 14.167921
RightToeBase -2.929409 -0.000000 0.000000
LeftUpLeg 24.611930 2.035592 3.937918
LeftLeg 13.048206 -0.000000 -0.000000
LeftFoot -20.038675 22.375087 -15.286379
LeftToeBase 2.749464 -0.000000 -0.000000
Spine 36.154822 10.315683 -8.197722
RightShoulder 13.804205 -18.117459 -12.379547
RightArm 48.933188 -36.454890 40.913966
RightForeArm -179.671926 -0.000000 95.956493
RightHand 99.895603 -0.000000 -169.770204
RightHandThumb1 -24.326973 -0.000000 -32.862282
LeftShoulder -11.679401 23.280059 15.430061
LeftArm 76.949724 -22.459560 -57.898830
LeftForeArm 62.528027 -0.000000 98.934014
LeftHand -25.118730 -0.000000 -24.703148
LeftHandThumb1 -26.253704 0.000000 33.147579
Head -4.768158 7.032313 16.297464
2302
root 1.973273 37.635332 -0.223394 -21.196491 -15.094797 -11.812363
RightUpLeg -50.314846 -33.854919 -21.584937
RightLeg 123.939267 -0.000000 -0.000000
RightFoot 9.079806 -14.297060 14.399327
RightToeBase -3.170518 -0.000000 0.000000
LeftUpLeg 24.590560 2.011285 3.756860
LeftLeg 13.055006 -0.000000 -0.000000
LeftFoot -20.016731 22.346721 -15.206097
LeftToeBase 2.667632 -0.000000 -0.000000
Spine 36.039517 10.194325 -8.330433
RightShoulder 13.764016 -18.184675 -12.381507
RightArm 48.975924 -36.422794 40.839353
RightForeArm -179.718819 -0.000000 95.937667
RightHand 99.840063 -0.000000 -169.781000
RightHandThumb1 -24.326973 -0.000000 -32.862282
LeftShoulder -11.765817 23.333202 15.235736
LeftArm 76.926866 -22.406948 -57.935801
LeftForeArm 62.473717 -0.000000 99.008522
LeftHand -25.031929 -0.000000 -24.635795
LeftHandThumb1 -26.253704 0.000000 33.147579
Head -4.722088 7.220701 16.238390
2303
root 1.974704 37.625436 -0.202090 -21.185512 -14.970973 -11.665117
RightUpLeg -50.459022 -34.161803 -21.729571
RightLeg 125.751193 -0.000000 -0.000000
RightFoot 10.788692 -13.928888 14.524146
RightToeBase -3.236007 -0.000000 0.000000
LeftUpLeg 24.580011 1.962182 3.572877
LeftLeg 13.011405 -0.000000 -0.000000
LeftFoot -20.006381 22.328317 -15.162828
LeftToeBase 2.649335 -0.000000 -0.000000
Spine 35.914378 10.107675 -8.445220
RightShoulder 13.717110 -18.209435 -12.340470
RightArm 48.940558 -36.408290 40.793357
RightForeArm -179.623926 -0.000000 95.940612
RightHand 99.881324 0.000000 -169.813880
RightHandThumb1 -24.326973 -0.000000 -32.862282
LeftShoulder -11.806740 23.344962 15.092173
LeftArm 76.858067 -22.325511 -57.953129
LeftForeArm 62.490344 0.000000 99.101811
LeftHand -24.941805 -0.000000 -24.673470
LeftHandThumb1 -26.253704 0.000000 33.147579
Head -4.655106 7.261528 16.146033
2304
root 1.982855 37.616299 -0.181628 -21.165833 -14.847688 -11.496633
RightUpLeg -50.608479 -34.483216 -21.921745
RightLeg 127.241355 -0.000000 -0.000000
RightFoot 12.504334 -13.627474 14.843761
RightToeBase -3.271191 -0.000000 0.000000
LeftUpLeg 24.553315 1.978822 3.397178
LeftLeg 12.966553 -0.000000 -0.000000
LeftFoot -19.935307 22.249856 -15.061369
LeftToeBase 2.599065 -0.000000 -0.000000
Spine 35.772032 10.030087 -8.566203
RightShoulder 13.689533 -18.237053 -12.289691
RightArm 48.855800 -36.377276 40.753653
RightForeArm -179.740271 -0.000000 95.936635
RightHand 99.867170 -0.000000 -169.594261
RightHandThumb1 -24.326973 -0.000000 -32.862282
LeftShoulder -11.855891 23.444072 14.940900
LeftArm 76.885359 -22.224360 -58.024363
LeftForeArm 62.559004 -0.000000 99.182069
LeftHand -25.000038 -0.000000 -24.764001
LeftHandThumb1 -26.253704 0.000000 33.147579
Head -4.553216 7.150810 16.029692
2305
root 1.990998 37.609512 -0.160737 -21.180070 -14.758658 -11.374291
RightUpLeg -50.694941 -34.764529 -22.096599
RightLeg 128.432216 -0.000000 -0.000000
RightFoot 14.105396 -13.344129 15.180499
RightToeBase -3.880166 -0.000000 0.000000
LeftUpLeg 24.608041 1.972973 3.255520
LeftLeg 12.864762 -0.000000 -0.000000
LeftFoot -19.853418 22.196768 -14.949566
LeftToeBase 2.577226 -0.000000 -0.000000
Spine 35.711594 9.954854 -8.573629
RightShoulder 13.649392 -18.237814 -12.305251
RightArm 48.790869 -36.352738 40.753221
RightForeArm -179.762968 -0.000000 95.901143
RightHand 99.874734 0.000000 -169.575970
RightHandThumb1 -24.326973 -0.000000 -32.862282
LeftShoulder -11.875021 23.475741 14.763815
LeftArm 76.815732 -22.144123 -58.073964
LeftForeArm 62.573109 -0.000000 99.281339
LeftHand -24.737564 0.000000 -24.878542
LeftHandThumb1 -26.253704 0.000000 33.147579
Head -4.518445 7.319498 15.950325
2306
root 2.003619 37.605428 -0.141290 -21.173384 -14.679762 -11.276237
RightUpLeg -50.757946 -35.044635 -22.271826
RightLeg 129.323440 -0.000000 -0.000000
RightFoot 15.514821 -13.030511 15.370056
RightToeBase -4.256762 -0.000000 0.000000
LeftUpLeg 24.650860 1.969776 3.132590
LeftLeg 12.748201 -0.000000 -0.000000
LeftFoot -19.776938 22.162038 -14.856708
LeftToeBase 2.590722 -0.000000 -0.000000
Spine 35.637022 9.887376 -8.539439
RightShoulder 13.620148 -18.268995 -12.291740
RightArm 48.667526 -36.273506 40.744875
RightForeArm -179.680491 0.000000 95.888941
RightHand 99.856794 -0.000000 -169.563931
RightHandThumb1 -24.326973 -0.000000 -32.862282
LeftShoulder -11.892404 23.565569 14.574526
LeftArm 76.830032 -22.062559 -58.146468
LeftForeArm 62.600395 -0.000000 99.379977
LeftHand -24.983384 -0.000000 -24.623787
LeftHandThumb1 -26.253704 0.000000 33.147579
Head -4.456039 7.189561 15.796172
2307
root 2.019937 37.602383 -0.121295 -21.208965 -14.627024 -11.196610
RightUpLeg -50.757659 -35.287154 -22.462895
RightLeg 129.940836 -0.000000 -0.000000
RightFoot 16.434446 -12.622950 15.541196
RightToeBase -4.595857 -0.000000 0.000000
LeftUpLeg 24.753693 1.980467 3.030369
LeftLeg 12.611640 -0.000000 -0.000000
LeftFoot -19.689074 22.122485 -14.755048
LeftToeBase 2.493706 -0.000000 -0.000000
Spine 35.649810 9.826333 -8.430311
RightShoulder 13.573071 -18.260618 -12.326370
RightArm 48.562761 -36.214182 40.739083
RightForeArm -179.635923 -0.000000 95.864922
RightHand 99.886429 -0.000000 -169.643803
RightHandThumb1 -24.326973 -0.000000 -32.862282
LeftShoulder -11.930930 23.648633 14.365902
LeftArm 76.859744 -21.953489 -58.249163
LeftForeArm 62.565150 -0.000000 99.492759
LeftHand -25.076037 -0.000000 -24.671768
LeftHandThumb1 -26.253704 0.000000 33.147579
Head -4.467665 7.369769 15.719750
